# Blender v2.76 (sub 0) OBJ File: 'cone.blend'
# www.blender.org
mtllib cone.mtl
o Cone
v 0.090899 -0.000010 -1.009806
v 0.285989 -0.000010 -0.990591
v 0.473582 -0.000010 -0.933686
v 0.646469 -0.000010 -0.841276
v 0.798006 -0.000010 -0.716913
v 0.922369 -0.000010 -0.565376
v 1.014778 -0.000010 -0.392490
v 1.071684 -0.000010 -0.204897
v 1.090899 -0.000010 -0.009806
v 0.090899 1.999990 -0.009806
v 1.071684 -0.000010 0.185284
v 1.014778 -0.000010 0.372877
v 0.922369 -0.000010 0.545764
v 0.798006 -0.000010 0.697301
v 0.646469 -0.000010 0.821663
v 0.473582 -0.000010 0.914073
v 0.285989 -0.000010 0.970979
v 0.090899 -0.000010 0.990194
v -0.104192 -0.000010 0.970979
v -0.291785 -0.000010 0.914073
v -0.464672 -0.000010 0.821663
v -0.616208 -0.000010 0.697300
v -0.740571 -0.000010 0.545763
v -0.832981 -0.000010 0.372876
v -0.889886 -0.000010 0.185283
v -0.909101 -0.000010 -0.009807
v -0.889886 -0.000010 -0.204898
v -0.832980 -0.000010 -0.392491
v -0.740570 -0.000010 -0.565377
v -0.616207 -0.000010 -0.716914
v -0.464670 -0.000010 -0.841277
v -0.291783 -0.000010 -0.933686
v -0.104190 -0.000010 -0.990592
vn -0.259900 0.445500 -0.856700
vn 0.087800 0.445500 -0.891000
vn -0.422000 0.445500 -0.789600
vn -0.568000 0.445500 -0.692100
vn -0.692100 0.445500 -0.568000
vn -0.789600 0.445500 -0.422000
vn -0.856700 0.445500 -0.259900
vn -0.891000 0.445500 -0.087800
vn -0.891000 0.445500 0.087800
vn -0.856700 0.445500 0.259900
vn -0.789600 0.445500 0.422000
vn -0.692100 0.445500 0.568000
vn -0.568000 0.445500 0.692100
vn -0.422000 0.445500 0.789600
vn -0.259900 0.445500 0.856700
vn -0.087800 0.445500 0.891000
vn 0.087800 0.445500 0.891000
vn 0.259900 0.445500 0.856700
vn 0.422000 0.445500 0.789600
vn 0.568000 0.445500 0.692100
vn 0.692100 0.445500 0.568000
vn 0.789600 0.445500 0.422000
vn 0.856700 0.445500 0.259900
vn 0.891000 0.445500 0.087800
vn 0.891000 0.445500 -0.087800
vn 0.856700 0.445500 -0.259900
vn 0.789600 0.445500 -0.422000
vn 0.692100 0.445500 -0.568000
vn 0.568000 0.445500 -0.692100
vn 0.422000 0.445500 -0.789600
vn -0.087800 0.445500 -0.891000
vn 0.259900 0.445500 -0.856700
vn 0.000000 -1.000000 -0.000000
usemtl None
s off
f 32//1 10//1 33//1
f 1//2 10//2 2//2
f 31//3 10//3 32//3
f 30//4 10//4 31//4
f 29//5 10//5 30//5
f 28//6 10//6 29//6
f 27//7 10//7 28//7
f 26//8 10//8 27//8
f 25//9 10//9 26//9
f 24//10 10//10 25//10
f 23//11 10//11 24//11
f 22//12 10//12 23//12
f 21//13 10//13 22//13
f 20//14 10//14 21//14
f 19//15 10//15 20//15
f 18//16 10//16 19//16
f 17//17 10//17 18//17
f 16//18 10//18 17//18
f 15//19 10//19 16//19
f 14//20 10//20 15//20
f 13//21 10//21 14//21
f 12//22 10//22 13//22
f 11//23 10//23 12//23
f 9//24 10//24 11//24
f 8//25 10//25 9//25
f 7//26 10//26 8//26
f 6//27 10//27 7//27
f 5//28 10//28 6//28
f 4//29 10//29 5//29
f 3//30 10//30 4//30
f 33//31 10//31 1//31
f 2//32 10//32 3//32
f 1//33 2//33 3//33 4//33 5//33 6//33 7//33 8//33 9//33 11//33 12//33 13//33 14//33 15//33 16//33 17//33 18//33 19//33 20//33 21//33 22//33 23//33 24//33 25//33 26//33 27//33 28//33 29//33 30//33 31//33 32//33 33//33
