# Blender v2.76 (sub 0) OBJ File: 'scen_test_4.blend'
# www.blender.org
o Gul_Sphere.010
v -3.619138 6.462869 -0.839624
v -4.254552 6.041007 -0.974685
v -4.843354 5.553553 -1.099839
v -3.380110 6.462869 -1.575274
v -3.973559 6.041007 -1.839495
v -4.523473 5.553553 -2.084333
v -2.993356 6.462869 -2.245153
v -3.518902 6.041007 -2.626985
v -4.005894 5.553553 -2.980806
v -2.475777 6.462869 -2.819982
v -2.910452 6.041007 -3.302737
v -3.313239 5.553553 -3.750078
v -1.849995 6.462869 -3.274640
v -2.174801 6.041007 -3.837219
v -2.475779 5.553553 -4.358528
v -1.143360 6.462869 -3.589254
v -1.344100 6.041007 -4.207070
v -1.530115 5.553553 -4.779565
v -0.386754 6.462869 -3.750076
v -0.454656 6.041007 -4.396128
v -0.517578 5.553553 -4.994786
v 0.386755 6.462869 -3.750076
v 0.454658 6.041007 -4.396127
v 0.517580 5.553553 -4.994785
v 1.143362 6.462869 -3.589255
v 1.344102 6.041007 -4.207070
v 1.530117 5.553553 -4.779563
v 1.849998 6.462869 -3.274640
v 2.174803 6.041007 -3.837219
v 2.475780 5.553553 -4.358527
v 2.475780 6.462869 -2.819983
v 2.910454 6.041007 -3.302737
v 3.313241 5.553553 -3.750077
v 2.993358 6.462869 -2.245153
v 3.518904 6.041007 -2.626985
v 4.005896 5.553553 -2.980805
v 3.380113 6.462869 -1.575275
v 3.973561 6.041007 -1.839495
v 4.523475 5.553553 -2.084332
v 3.619140 6.462869 -0.839624
v 4.254555 6.041007 -0.974686
v 4.843357 5.553553 -1.099838
v 3.699994 6.462869 -0.070352
v 4.349605 6.041007 -0.070352
v 4.951560 5.553553 -0.070351
v 3.619140 6.462869 0.698920
v 4.254556 6.041007 0.833982
v 4.843357 5.553553 0.959136
v 3.380113 6.462869 1.434571
v 3.973562 6.041007 1.698792
v 4.523476 5.553553 1.943629
v 2.993358 6.462869 2.104450
v 3.518905 6.041007 2.486282
v 4.005897 5.553553 2.840102
v 2.475780 6.462869 2.679279
v 2.910455 6.041007 3.162034
v 3.313241 5.553553 3.609375
v 1.849997 6.462869 3.133936
v 2.174803 6.041007 3.696516
v 2.475780 5.553553 4.217825
v 1.143362 6.462869 3.448551
v 1.344103 6.041007 4.066369
v 1.530117 5.553553 4.638862
v 0.386755 6.462869 3.609373
v 0.454658 6.041007 4.255426
v 0.517579 5.553553 4.854084
v -0.386754 6.462869 3.609373
v -0.454657 6.041007 4.255426
v -0.517579 5.553553 4.854084
v -1.143360 6.462869 3.448551
v -1.344101 6.041007 4.066369
v -1.530116 5.553553 4.638862
v -1.849996 6.462869 3.133936
v -2.174802 6.041007 3.696517
v -2.475780 5.553553 4.217825
v -2.475778 6.462869 2.679279
v -2.910454 6.041007 3.162035
v -3.313241 5.553553 3.609374
v -2.993357 6.462869 2.104450
v -3.518904 6.041007 2.486282
v -4.005897 5.553553 2.840102
v -3.380112 6.462869 1.434571
v -3.973562 6.041007 1.698792
v -4.523476 5.553553 1.943629
v -3.619140 6.462869 0.698919
v -4.254556 6.041007 0.833981
v -4.843357 5.553553 0.959135
v -3.699993 6.462869 -0.070353
v -4.349605 6.041007 -0.070353
v -4.951560 5.553553 -0.070353
v -3.485955 6.253207 -0.811318
v -4.110269 5.839173 -0.944022
v -4.689465 5.359272 -1.067131
v -3.255724 6.253207 -1.519899
v -3.838804 5.839173 -1.779496
v -4.379746 5.359272 -2.020343
v -2.883207 6.253207 -2.165126
v -3.399567 5.839173 -2.540282
v -3.878617 5.359272 -2.888335
v -2.384672 6.253207 -2.718798
v -2.811747 5.839173 -3.193115
v -3.207965 5.359272 -3.633162
v -1.781916 6.253207 -3.156724
v -2.101045 5.839173 -3.709469
v -2.397117 5.359272 -4.222278
v -1.101290 6.253207 -3.459764
v -1.298521 5.839173 -4.066777
v -1.481499 5.359272 -4.629940
v -0.372524 6.253207 -3.614665
v -0.439245 5.839173 -4.249425
v -0.501136 5.359272 -4.838325
v 0.372526 6.253207 -3.614666
v 0.439239 5.839173 -4.249425
v 0.501138 5.359272 -4.838325
v 1.101292 6.253207 -3.459764
v 1.298523 5.839173 -4.066776
v 1.481501 5.359272 -4.629939
v 1.781919 6.253207 -3.156724
v 2.101047 5.839173 -3.709468
v 2.397119 5.359272 -4.222277
v 2.384674 6.253207 -2.718799
v 2.811749 5.839173 -3.193115
v 3.207967 5.359272 -3.633160
v 2.883209 6.253207 -2.165126
v 3.399569 5.839173 -2.540282
v 3.878619 5.359272 -2.888334
v 3.255727 6.253207 -1.519899
v 3.838807 5.839173 -1.779496
v 4.379748 5.359272 -2.020342
v 3.485958 6.253207 -0.811318
v 4.110271 5.839173 -0.944022
v 4.689467 5.359272 -1.067130
v 3.563836 6.253207 -0.070352
v 4.202094 5.839173 -0.070352
v 4.794237 5.359272 -0.070351
v 3.485958 6.253207 0.670614
v 4.110272 5.839173 0.803318
v 4.689467 5.359272 0.926427
v 3.255727 6.253207 1.379195
v 3.838808 5.839173 1.638792
v 4.379749 5.359272 1.879640
v 2.883209 6.253207 2.024423
v 3.399570 5.839173 2.399579
v 3.878620 5.359272 2.747631
v 2.384674 6.253207 2.578095
v 2.811750 5.839173 3.052412
v 3.207968 5.359272 3.492458
v 1.781918 6.253207 3.016021
v 2.101048 5.839173 3.568766
v 2.397119 5.359272 4.081575
v 1.101292 6.253207 3.319061
v 1.298523 5.839173 3.926075
v 1.481501 5.359272 4.489237
v 0.358343 6.253551 3.475679
v 0.423880 5.839554 4.110623
v 0.484764 5.359692 4.699683
v -0.358341 6.253551 3.475679
v -0.423879 5.839554 4.110623
v -0.484764 5.359692 4.699683
v -1.101290 6.253207 3.319061
v -1.298522 5.839173 3.926075
v -1.481500 5.359272 4.489237
v -1.781917 6.253207 3.016021
v -2.101047 5.839173 3.568766
v -2.397119 5.359272 4.081575
v -2.384673 6.253207 2.578095
v -2.811749 5.839173 3.052412
v -3.207967 5.359272 3.492458
v -2.883208 6.253207 2.024422
v -3.399570 5.839173 2.399579
v -3.878619 5.359272 2.747631
v -3.255726 6.253207 1.379195
v -3.838808 5.839173 1.638792
v -4.379749 5.359272 1.879639
v -3.485957 6.253207 0.670613
v -4.110272 5.839173 0.803318
v -4.689467 5.359272 0.926426
v -3.563835 6.253207 -0.070353
v -4.202094 5.839173 -0.070353
v -4.794237 5.359272 -0.070353
vn -0.520000 0.837300 -0.169000
vn -0.600500 0.775500 -0.195100
vn -0.473500 0.837300 -0.273400
vn -0.546800 0.775500 -0.315700
vn -0.406300 0.837300 -0.365800
vn -0.469200 0.775500 -0.422500
vn -0.321400 0.837300 -0.442300
vn -0.371100 0.775500 -0.510800
vn -0.222400 0.837300 -0.499500
vn -0.256800 0.775500 -0.576800
vn -0.113700 0.837300 -0.534800
vn -0.131300 0.775500 -0.617600
vn 0.000000 0.775500 -0.631400
vn 0.000000 0.837300 -0.546700
vn 0.113700 0.837300 -0.534800
vn 0.131300 0.775500 -0.617600
vn 0.222400 0.837300 -0.499500
vn 0.256800 0.775500 -0.576800
vn 0.321400 0.837300 -0.442300
vn 0.371100 0.775500 -0.510800
vn 0.406300 0.837300 -0.365800
vn 0.469200 0.775500 -0.422500
vn 0.473500 0.837300 -0.273400
vn 0.546800 0.775500 -0.315700
vn 0.520000 0.837300 -0.169000
vn 0.600500 0.775500 -0.195100
vn 0.543700 0.837300 -0.057200
vn 0.627900 0.775500 -0.066000
vn 0.543700 0.837300 0.057200
vn 0.627900 0.775500 0.066000
vn 0.520000 0.837300 0.169000
vn 0.600500 0.775500 0.195100
vn 0.473500 0.837300 0.273400
vn 0.546800 0.775500 0.315700
vn 0.406300 0.837300 0.365800
vn 0.469200 0.775500 0.422500
vn 0.321400 0.837300 0.442300
vn 0.371100 0.775500 0.510800
vn 0.222400 0.837300 0.499500
vn 0.256800 0.775500 0.576800
vn 0.113700 0.837300 0.534800
vn 0.131300 0.775500 0.617600
vn -0.113700 0.837300 0.534800
vn -0.131300 0.775500 0.617600
vn -0.222400 0.837300 0.499500
vn -0.256800 0.775500 0.576800
vn -0.321400 0.837300 0.442300
vn -0.371100 0.775500 0.510800
vn -0.406300 0.837300 0.365800
vn -0.469200 0.775500 0.422500
vn -0.546800 0.775500 0.315700
vn -0.473500 0.837300 0.273400
vn -0.520000 0.837300 0.169000
vn -0.600500 0.775500 0.195100
vn -0.543700 0.837300 0.057200
vn -0.627900 0.775500 0.066000
vn -0.543700 0.837300 -0.057200
vn -0.627900 0.775500 -0.066000
vn 0.519600 -0.837600 0.168800
vn 0.600800 -0.775200 0.195200
vn 0.473100 -0.837600 0.273200
vn 0.547100 -0.775200 0.315900
vn 0.406000 -0.837600 0.365600
vn 0.469500 -0.775200 0.422700
vn 0.321100 -0.837600 0.442000
vn 0.371300 -0.775200 0.511100
vn 0.222200 -0.837600 0.499100
vn 0.256900 -0.775200 0.577100
vn 0.113600 -0.837600 0.534400
vn 0.131300 -0.775200 0.617900
vn -0.000000 -0.775200 0.631700
vn 0.000000 -0.837600 0.546300
vn -0.113600 -0.837600 0.534400
vn -0.131300 -0.775200 0.617900
vn -0.222200 -0.837600 0.499100
vn -0.256900 -0.775200 0.577100
vn -0.321100 -0.837600 0.442000
vn -0.371300 -0.775200 0.511100
vn -0.406000 -0.837600 0.365600
vn -0.469500 -0.775200 0.422700
vn -0.473100 -0.837600 0.273200
vn -0.547100 -0.775200 0.315900
vn -0.519600 -0.837600 0.168800
vn -0.600800 -0.775200 0.195200
vn -0.543300 -0.837600 0.057100
vn -0.628300 -0.775200 0.066000
vn -0.543300 -0.837600 -0.057100
vn -0.628300 -0.775200 -0.066000
vn -0.519600 -0.837600 -0.168800
vn -0.600800 -0.775200 -0.195200
vn -0.473100 -0.837600 -0.273200
vn -0.547100 -0.775200 -0.315900
vn -0.406000 -0.837600 -0.365600
vn -0.469500 -0.775200 -0.422700
vn -0.321100 -0.837600 -0.442000
vn -0.371300 -0.775200 -0.511100
vn -0.222200 -0.837600 -0.499100
vn -0.256900 -0.775200 -0.577100
vn -0.113100 -0.837600 -0.534500
vn -0.130700 -0.775200 -0.618000
vn 0.113100 -0.837600 -0.534500
vn 0.130700 -0.775200 -0.618000
vn 0.222200 -0.837600 -0.499100
vn 0.256900 -0.775200 -0.577100
vn 0.321100 -0.837600 -0.442000
vn 0.371300 -0.775200 -0.511100
vn 0.406000 -0.837600 -0.365600
vn 0.469500 -0.775200 -0.422700
vn 0.547100 -0.775200 -0.315900
vn 0.473100 -0.837600 -0.273200
vn 0.519600 -0.837600 -0.168800
vn 0.600800 -0.775200 -0.195200
vn 0.543300 -0.837600 -0.057100
vn 0.628300 -0.775200 -0.066000
vn 0.543300 -0.837600 0.057100
vn 0.628300 -0.775200 0.066000
vn 0.798900 0.542500 0.259600
vn -0.740700 -0.627200 -0.240700
vn 0.727500 0.542500 0.420000
vn -0.674500 -0.627200 -0.389400
vn 0.624300 0.542500 0.562100
vn -0.578800 -0.627200 -0.521100
vn 0.493800 0.542500 0.679600
vn -0.457800 -0.627200 -0.630100
vn 0.341700 0.542500 0.767400
vn -0.316800 -0.627200 -0.711500
vn 0.174700 0.542500 0.821700
vn -0.161900 -0.627200 -0.761800
vn 0.000000 -0.627200 -0.778800
vn 0.000000 0.542500 0.840000
vn -0.174700 0.542500 0.821700
vn 0.161900 -0.627200 -0.761800
vn -0.341700 0.542500 0.767400
vn 0.316800 -0.627200 -0.711500
vn -0.493800 0.542500 0.679600
vn 0.457800 -0.627200 -0.630100
vn -0.624300 0.542500 0.562100
vn 0.578800 -0.627200 -0.521100
vn -0.727500 0.542500 0.420000
vn 0.674500 -0.627200 -0.389400
vn -0.798900 0.542500 0.259600
vn 0.740700 -0.627200 -0.240700
vn -0.835400 0.542500 0.087800
vn 0.774600 -0.627200 -0.081400
vn -0.835400 0.542500 -0.087800
vn 0.774600 -0.627200 0.081400
vn 0.740700 -0.627200 0.240700
vn -0.798900 0.542500 -0.259600
vn -0.727500 0.542500 -0.420000
vn 0.674500 -0.627200 0.389400
vn -0.624300 0.542500 -0.562100
vn 0.578800 -0.627200 0.521100
vn -0.493800 0.542500 -0.679600
vn 0.457800 -0.627200 0.630100
vn -0.341700 0.542500 -0.767400
vn 0.316800 -0.627200 0.711500
vn -0.989800 0.048800 0.134000
vn -0.988500 0.048200 0.143100
vn -0.174700 0.542500 -0.821700
vn 0.159900 -0.631400 0.758800
vn 0.989100 0.052000 0.137900
vn 0.988100 0.052100 0.144600
vn 0.172500 0.546700 -0.819300
vn -0.161900 -0.627200 0.761800
vn 0.341700 0.542500 -0.767400
vn -0.316800 -0.627200 0.711500
vn -0.457800 -0.627200 0.630100
vn 0.493800 0.542500 -0.679600
vn 0.624300 0.542500 -0.562100
vn -0.578800 -0.627200 0.521100
vn -0.674500 -0.627200 0.389400
vn 0.727500 0.542500 -0.420000
vn 0.798900 0.542500 -0.259600
vn -0.740700 -0.627200 0.240700
vn -0.774600 -0.627200 0.081400
vn 0.835400 0.542500 -0.087800
vn 0.835400 0.542500 0.087800
vn -0.774600 -0.627200 -0.081400
vn 0.543700 0.837300 0.057100
vn -0.543700 0.837300 0.057100
vn -0.130800 -0.775200 -0.618100
vn 0.130800 -0.775200 -0.618100
vn -0.989100 0.052000 0.137900
vn -0.988100 0.052100 0.144600
vn -0.172500 0.546700 -0.819300
vn 0.161900 -0.627200 0.761800
vn 0.989800 0.048800 0.134000
vn 0.988500 0.048200 0.143100
vn 0.174700 0.542500 -0.821700
vn -0.159900 -0.631400 0.758800
s off
f 2//1 1//1 4//1
f 3//2 2//2 5//2
f 5//3 4//3 7//3
f 6//4 5//4 8//4
f 8//5 7//5 10//5
f 8//6 11//6 12//6
f 11//7 10//7 13//7
f 12//8 11//8 14//8
f 14//9 13//9 16//9
f 14//10 17//10 18//10
f 17//11 16//11 19//11
f 18//12 17//12 20//12
f 21//13 20//13 23//13
f 20//14 19//14 22//14
f 23//15 22//15 25//15
f 23//16 26//16 27//16
f 25//17 28//17 29//17
f 27//18 26//18 29//18
f 28//19 31//19 32//19
f 30//20 29//20 32//20
f 32//21 31//21 34//21
f 33//22 32//22 35//22
f 34//23 37//23 38//23
f 36//24 35//24 38//24
f 37//25 40//25 41//25
f 39//26 38//26 41//26
f 41//27 40//27 43//27
f 42//28 41//28 44//28
f 44//29 43//29 46//29
f 45//30 44//30 47//30
f 46//31 49//31 50//31
f 48//32 47//32 50//32
f 49//33 52//33 53//33
f 51//34 50//34 53//34
f 52//35 55//35 56//35
f 54//36 53//36 56//36
f 55//37 58//37 59//37
f 57//38 56//38 59//38
f 59//39 58//39 61//39
f 60//40 59//40 62//40
f 62//41 61//41 64//41
f 63//42 62//42 65//42
f 68//43 67//43 70//43
f 69//44 68//44 71//44
f 70//45 73//45 74//45
f 72//46 71//46 74//46
f 74//47 73//47 76//47
f 75//48 74//48 77//48
f 77//49 76//49 79//49
f 78//50 77//50 80//50
f 81//51 80//51 83//51
f 79//52 82//52 83//52
f 82//53 85//53 86//53
f 84//54 83//54 86//54
f 85//55 88//55 89//55
f 87//56 86//56 89//56
f 88//57 1//57 2//57
f 89//58 2//58 3//58
f 95//59 94//59 91//59
f 96//60 95//60 92//60
f 98//61 97//61 94//61
f 98//62 95//62 96//62
f 101//63 100//63 97//63
f 102//64 101//64 98//64
f 104//65 103//65 100//65
f 104//66 101//66 102//66
f 106//67 103//67 104//67
f 107//68 104//68 105//68
f 110//69 109//69 106//69
f 110//70 107//70 108//70
f 113//71 110//71 111//71
f 113//72 112//72 109//72
f 116//73 115//73 112//73
f 117//74 116//74 113//74
f 119//75 118//75 115//75
f 120//76 119//76 116//76
f 121//77 118//77 119//77
f 122//78 119//78 120//78
f 124//79 121//79 122//79
f 125//80 122//80 123//80
f 127//81 124//81 125//81
f 129//82 128//82 125//82
f 130//83 127//83 128//83
f 131//84 128//84 129//84
f 134//85 133//85 130//85
f 134//86 131//86 132//86
f 136//87 133//87 134//87
f 138//88 137//88 134//88
f 140//89 139//89 136//89
f 140//90 137//90 138//90
f 143//91 142//91 139//91
f 143//92 140//92 141//92
f 146//93 145//93 142//93
f 147//94 146//94 143//94
f 149//95 148//95 145//95
f 149//96 146//96 147//96
f 151//97 148//97 149//97
f 152//98 149//98 150//98
f 155//99 154//99 151//99
f 156//100 155//100 152//100
f 160//101 157//101 158//101
f 161//102 158//102 159//102
f 164//103 163//103 160//103
f 165//104 164//104 161//104
f 166//105 163//105 164//105
f 167//106 164//106 165//106
f 169//107 166//107 167//107
f 170//108 167//108 168//108
f 174//109 173//109 170//109
f 172//110 169//110 170//110
f 175//111 172//111 173//111
f 176//112 173//112 174//112
f 179//113 178//113 175//113
f 179//114 176//114 177//114
f 91//115 178//115 179//115
f 93//116 92//116 179//116
f 4//117 1//117 91//117
f 6//118 96//118 93//118
f 7//119 4//119 94//119
f 9//120 99//120 96//120
f 7//121 97//121 100//121
f 12//122 102//122 99//122
f 13//123 10//123 100//123
f 12//124 15//124 105//124
f 13//125 103//125 106//125
f 15//126 18//126 108//126
f 16//127 106//127 109//127
f 18//128 21//128 111//128
f 24//129 114//129 111//129
f 22//130 19//130 109//130
f 25//131 22//131 112//131
f 27//132 117//132 114//132
f 28//133 25//133 115//133
f 30//134 120//134 117//134
f 31//135 28//135 118//135
f 33//136 123//136 120//136
f 34//137 31//137 121//137
f 33//138 36//138 126//138
f 34//139 124//139 127//139
f 36//140 39//140 129//140
f 37//141 127//141 130//141
f 39//142 42//142 132//142
f 40//143 130//143 133//143
f 42//144 45//144 135//144
f 46//145 43//145 133//145
f 48//146 138//146 135//146
f 51//147 141//147 138//147
f 49//148 46//148 136//148
f 52//149 49//149 139//149
f 54//150 144//150 141//150
f 55//151 52//151 142//151
f 57//152 147//152 144//152
f 55//153 145//153 148//153
f 57//154 60//154 150//154
f 58//155 148//155 151//155
f 60//156 63//156 153//156
f 64//157 154//157 155//157
f 66//158 65//158 155//158
f 64//159 61//159 151//159
f 66//160 156//160 153//160
f 67//161 68//161 158//161
f 69//162 159//162 158//162
f 67//163 157//163 160//163
f 69//164 72//164 162//164
f 73//165 70//165 160//165
f 75//166 165//166 162//166
f 78//167 168//167 165//167
f 76//168 73//168 163//168
f 76//169 166//169 169//169
f 78//170 81//170 171//170
f 81//171 84//171 174//171
f 79//172 169//172 172//172
f 82//173 172//173 175//173
f 84//174 87//174 177//174
f 87//175 90//175 180//175
f 85//176 175//176 178//176
f 1//177 88//177 178//177
f 3//178 93//178 180//178
f 5//1 2//1 4//1
f 6//2 3//2 5//2
f 8//3 5//3 7//3
f 9//4 6//4 8//4
f 11//5 8//5 10//5
f 9//6 8//6 12//6
f 14//7 11//7 13//7
f 15//8 12//8 14//8
f 17//9 14//9 16//9
f 15//10 14//10 18//10
f 20//11 17//11 19//11
f 21//12 18//12 20//12
f 24//13 21//13 23//13
f 23//14 20//14 22//14
f 26//15 23//15 25//15
f 24//16 23//16 27//16
f 26//17 25//17 29//17
f 30//18 27//18 29//18
f 29//19 28//19 32//19
f 33//20 30//20 32//20
f 35//21 32//21 34//21
f 36//22 33//22 35//22
f 35//23 34//23 38//23
f 39//24 36//24 38//24
f 38//25 37//25 41//25
f 42//26 39//26 41//26
f 44//27 41//27 43//27
f 45//28 42//28 44//28
f 47//179 44//179 46//179
f 48//30 45//30 47//30
f 47//31 46//31 50//31
f 51//32 48//32 50//32
f 50//33 49//33 53//33
f 54//34 51//34 53//34
f 53//35 52//35 56//35
f 57//36 54//36 56//36
f 56//37 55//37 59//37
f 60//38 57//38 59//38
f 62//39 59//39 61//39
f 63//40 60//40 62//40
f 65//41 62//41 64//41
f 66//42 63//42 65//42
f 71//43 68//43 70//43
f 72//44 69//44 71//44
f 71//45 70//45 74//45
f 75//46 72//46 74//46
f 77//47 74//47 76//47
f 78//48 75//48 77//48
f 80//49 77//49 79//49
f 81//50 78//50 80//50
f 84//51 81//51 83//51
f 80//52 79//52 83//52
f 83//53 82//53 86//53
f 87//54 84//54 86//54
f 86//180 85//180 89//180
f 90//56 87//56 89//56
f 89//57 88//57 2//57
f 90//58 89//58 3//58
f 92//59 95//59 91//59
f 93//60 96//60 92//60
f 95//61 98//61 94//61
f 99//62 98//62 96//62
f 98//63 101//63 97//63
f 99//64 102//64 98//64
f 101//65 104//65 100//65
f 105//66 104//66 102//66
f 107//67 106//67 104//67
f 108//68 107//68 105//68
f 107//69 110//69 106//69
f 111//70 110//70 108//70
f 114//71 113//71 111//71
f 110//72 113//72 109//72
f 113//73 116//73 112//73
f 114//74 117//74 113//74
f 116//75 119//75 115//75
f 117//76 120//76 116//76
f 122//77 121//77 119//77
f 123//78 122//78 120//78
f 125//79 124//79 122//79
f 126//80 125//80 123//80
f 128//81 127//81 125//81
f 126//82 129//82 125//82
f 131//83 130//83 128//83
f 132//84 131//84 129//84
f 131//85 134//85 130//85
f 135//86 134//86 132//86
f 137//87 136//87 134//87
f 135//88 138//88 134//88
f 137//89 140//89 136//89
f 141//90 140//90 138//90
f 140//91 143//91 139//91
f 144//92 143//92 141//92
f 143//93 146//93 142//93
f 144//94 147//94 143//94
f 146//95 149//95 145//95
f 150//96 149//96 147//96
f 152//97 151//97 149//97
f 153//98 152//98 150//98
f 152//99 155//99 151//99
f 153//181 156//181 152//181
f 161//101 160//101 158//101
f 162//182 161//182 159//182
f 161//103 164//103 160//103
f 162//104 165//104 161//104
f 167//105 166//105 164//105
f 168//106 167//106 165//106
f 170//107 169//107 167//107
f 171//108 170//108 168//108
f 171//109 174//109 170//109
f 173//110 172//110 170//110
f 176//111 175//111 173//111
f 177//112 176//112 174//112
f 176//113 179//113 175//113
f 180//114 179//114 177//114
f 92//115 91//115 179//115
f 180//116 93//116 179//116
f 94//117 4//117 91//117
f 3//118 6//118 93//118
f 97//119 7//119 94//119
f 6//120 9//120 96//120
f 10//121 7//121 100//121
f 9//122 12//122 99//122
f 103//123 13//123 100//123
f 102//124 12//124 105//124
f 16//125 13//125 106//125
f 105//126 15//126 108//126
f 19//127 16//127 109//127
f 108//128 18//128 111//128
f 21//129 24//129 111//129
f 112//130 22//130 109//130
f 115//131 25//131 112//131
f 24//132 27//132 114//132
f 118//133 28//133 115//133
f 27//134 30//134 117//134
f 121//135 31//135 118//135
f 30//136 33//136 120//136
f 124//137 34//137 121//137
f 123//138 33//138 126//138
f 37//139 34//139 127//139
f 126//140 36//140 129//140
f 40//141 37//141 130//141
f 129//142 39//142 132//142
f 43//143 40//143 133//143
f 132//144 42//144 135//144
f 136//145 46//145 133//145
f 45//146 48//146 135//146
f 48//147 51//147 138//147
f 139//148 49//148 136//148
f 142//149 52//149 139//149
f 51//150 54//150 141//150
f 145//151 55//151 142//151
f 54//152 57//152 144//152
f 58//153 55//153 148//153
f 147//154 57//154 150//154
f 61//155 58//155 151//155
f 150//156 60//156 153//156
f 65//183 64//183 155//183
f 156//184 66//184 155//184
f 154//185 64//185 151//185
f 63//186 66//186 153//186
f 157//187 67//187 158//187
f 68//188 69//188 158//188
f 70//189 67//189 160//189
f 159//190 69//190 162//190
f 163//165 73//165 160//165
f 72//166 75//166 162//166
f 75//167 78//167 165//167
f 166//168 76//168 163//168
f 79//169 76//169 169//169
f 168//170 78//170 171//170
f 171//171 81//171 174//171
f 82//172 79//172 172//172
f 85//173 82//173 175//173
f 174//174 84//174 177//174
f 177//175 87//175 180//175
f 88//176 85//176 178//176
f 91//177 1//177 178//177
f 90//178 3//178 180//178
