# Blender v2.76 (sub 0) OBJ File: 'scen_test_4.blend'
# www.blender.org
o Blå_Sphere.009
v -4.869050 5.553553 -1.099839
v -5.404786 5.005847 -1.213713
v -5.881588 4.403892 -1.315061
v -4.549169 5.553553 -2.084333
v -5.049522 5.005847 -2.307104
v -5.494833 4.403892 -2.505370
v -4.031590 5.553553 -2.980806
v -4.474692 5.005847 -3.302738
v -4.869051 4.403892 -3.589257
v -3.338934 5.553553 -3.750078
v -3.705420 5.005847 -4.157101
v -4.031590 4.403892 -4.519350
v -2.501474 5.553553 -4.358528
v -2.775326 5.005847 -4.832854
v -3.019053 4.403892 -5.255001
v -1.555810 5.553553 -4.779564
v -1.725060 5.005847 -5.300462
v -1.875692 4.403892 -5.764058
v -0.543273 5.553553 -4.994785
v -0.600524 5.005847 -5.539490
v -0.651477 4.403892 -6.024273
v 0.491885 5.553553 -4.994785
v 0.549135 5.005847 -5.539490
v 0.600088 4.403892 -6.024273
v 1.504422 5.553553 -4.779563
v 1.673672 5.005847 -5.300462
v 1.824303 4.403892 -5.764058
v 2.450085 5.553553 -4.358526
v 2.723938 5.005847 -4.832854
v 2.967664 4.403892 -5.255001
v 3.287545 5.553553 -3.750077
v 3.654032 5.005847 -4.157101
v 3.980201 4.403892 -4.519349
v 3.980201 5.553553 -2.980805
v 4.423304 5.005847 -3.302738
v 4.817662 4.403892 -3.589256
v 4.497780 5.553553 -2.084332
v 4.998134 5.005847 -2.307104
v 5.443444 4.403892 -2.505369
v 4.817661 5.553553 -1.099838
v 5.353399 5.005847 -1.213713
v 5.830199 4.403892 -1.315060
v 4.925865 5.553553 -0.070351
v 5.473571 5.005847 -0.070351
v 5.961024 4.403892 -0.070351
v 4.817662 5.553553 0.959136
v 5.353399 5.005847 1.073011
v 5.830200 4.403892 1.174358
v 4.497780 5.553553 1.943629
v 4.998135 5.005847 2.166402
v 5.443446 4.403892 2.364667
v 3.980202 5.553553 2.840102
v 4.423306 5.005847 3.162036
v 4.817663 4.403892 3.448554
v 3.287546 5.553553 3.609375
v 3.654033 5.005847 4.016401
v 3.980203 4.403892 4.378649
v 2.450085 5.553553 4.217826
v 2.723938 5.005847 4.692154
v 2.967665 4.403892 5.114301
v 1.504421 5.553553 4.638863
v 1.673672 5.005847 5.159763
v 1.824303 4.403892 5.623358
v 0.491884 5.553553 4.854084
v 0.549134 5.005847 5.398791
v 0.600087 4.403892 5.883574
v -0.543274 5.553553 4.854084
v -0.600526 5.005847 5.398791
v -0.651478 4.403892 5.883574
v -1.555812 5.553553 4.638863
v -1.725063 5.005847 5.159763
v -1.875694 4.403892 5.623359
v -2.501476 5.553553 4.217826
v -2.775330 5.005847 4.692155
v -3.019056 4.403892 5.114301
v -3.338936 5.553553 3.609374
v -3.705425 5.005847 4.016401
v -4.031594 4.403892 4.378650
v -4.031592 5.553553 2.840102
v -4.474698 5.005847 3.162037
v -4.869055 4.403892 3.448555
v -4.549171 5.553553 1.943629
v -5.049528 5.005847 2.166401
v -5.494837 4.403892 2.364667
v -4.869052 5.553553 0.959135
v -5.404793 5.005847 1.073009
v -5.881592 4.403892 1.174357
v -4.977255 5.553553 -0.070353
v -5.524965 5.005847 -0.070354
v -6.012416 4.403892 -0.070353
v -4.696139 5.376782 -1.063087
v -5.222682 4.839003 -1.175008
v -5.691549 4.246569 -1.274670
v -4.387680 5.376782 -2.012439
v -4.879450 4.839003 -2.231388
v -5.317345 4.246569 -2.426350
v -3.888580 5.376782 -2.876905
v -4.324076 4.839003 -3.193314
v -4.711873 4.246569 -3.475064
v -3.220652 5.376782 -3.618711
v -3.580851 4.839003 -4.018754
v -3.901589 4.246569 -4.374975
v -2.413092 5.376782 -4.205439
v -2.682245 4.839003 -4.671625
v -2.921913 4.246569 -5.086745
v -1.501190 5.376782 -4.611445
v -1.667533 4.839003 -5.123402
v -1.815655 4.246569 -5.579284
v -0.524802 5.376782 -4.818984
v -0.581068 4.839003 -5.354342
v -0.631175 4.246569 -5.831053
v 0.473413 5.376782 -4.818983
v 0.529680 4.839003 -5.354342
v 0.579785 4.246569 -5.831053
v 1.449801 5.376782 -4.611444
v 1.616144 4.839003 -5.123402
v 1.764265 4.246569 -5.579284
v 2.361704 5.376782 -4.205438
v 2.630856 4.839003 -4.671625
v 2.870524 4.246569 -5.086744
v 3.169263 5.376782 -3.618710
v 3.529463 4.839003 -4.018753
v 3.850200 4.246569 -4.374966
v 3.837191 5.376782 -2.876904
v 4.272687 4.839003 -3.193314
v 4.660484 4.246569 -3.475063
v 4.344272 5.377263 -1.995706
v 4.836516 4.839506 -2.213794
v 5.274822 4.247088 -2.408015
v 4.641371 5.377263 -1.081314
v 5.167793 4.839506 -1.194211
v 5.636559 4.247088 -1.294712
v 4.749094 5.376782 -0.070351
v 5.287401 4.839003 -0.070351
v 5.766743 4.246569 -0.070351
v 4.644752 5.376782 0.922384
v 5.171295 4.839003 1.034305
v 5.640162 4.246569 1.133966
v 4.336292 5.376782 1.871735
v 4.828063 4.839003 2.090685
v 5.265958 4.246569 2.285647
v 3.837192 5.376782 2.736202
v 4.272689 4.839003 3.052612
v 4.660485 4.246569 3.334361
v 3.169264 5.376782 3.478008
v 3.529464 4.839003 3.878052
v 3.850201 4.246569 4.234266
v 2.361704 5.376782 4.064737
v 2.630857 4.839003 4.530925
v 2.870525 4.246569 4.946044
v 1.449801 5.376782 4.470744
v 1.616144 4.839003 4.982703
v 1.764266 4.246569 5.438584
v 0.473413 5.376782 4.678282
v 0.529679 4.839003 5.213643
v 0.579785 4.246569 5.690353
v -0.524803 5.376782 4.678282
v -0.581070 4.839003 5.213643
v -0.631176 4.246569 5.690353
v -1.501191 5.376782 4.470744
v -1.667536 4.839003 4.982703
v -1.815656 4.246569 5.438584
v -2.413094 5.376782 4.064737
v -2.682249 4.839003 4.530926
v -2.921916 4.246569 4.946045
v -3.220654 5.376782 3.478007
v -3.580856 4.839003 3.878053
v -3.901592 4.246569 4.234267
v -3.888582 5.376782 2.736202
v -4.324081 4.839003 3.052613
v -4.711877 4.246569 3.334362
v -4.387682 5.376782 1.871735
v -4.879456 4.839003 2.090685
v -5.317349 4.246569 2.285647
v -4.696142 5.376782 0.922383
v -5.222689 4.839003 1.034304
v -5.691554 4.246569 1.133966
v -4.800485 5.376782 -0.070353
v -5.338794 4.839003 -0.070354
v -5.818136 4.246569 -0.070353
vn -0.674300 0.705200 -0.219100
vn -0.740700 0.627200 -0.240700
vn -0.614100 0.705200 -0.354500
vn -0.674500 0.627200 -0.389400
vn -0.526900 0.705200 -0.474400
vn -0.578800 0.627200 -0.521100
vn -0.416800 0.705200 -0.573600
vn -0.457800 0.627200 -0.630100
vn -0.316800 0.627200 -0.711500
vn -0.288400 0.705200 -0.647700
vn -0.147400 0.705200 -0.693600
vn -0.161900 0.627200 -0.761800
vn 0.000000 0.705200 -0.709000
vn 0.000000 0.627200 -0.778800
vn 0.147400 0.705200 -0.693600
vn 0.161900 0.627200 -0.761800
vn 0.288400 0.705200 -0.647700
vn 0.316800 0.627200 -0.711500
vn 0.416800 0.705200 -0.573600
vn 0.457800 0.627200 -0.630100
vn 0.526900 0.705200 -0.474400
vn 0.578800 0.627200 -0.521100
vn 0.614100 0.705200 -0.354500
vn 0.674500 0.627200 -0.389400
vn 0.774600 0.627200 -0.081400
vn 0.705200 0.705200 -0.074100
vn 0.705200 0.705200 0.074100
vn 0.774600 0.627200 0.081400
vn 0.674300 0.705200 0.219100
vn 0.740700 0.627200 0.240700
vn 0.614100 0.705200 0.354500
vn 0.674500 0.627200 0.389400
vn 0.526900 0.705200 0.474400
vn 0.578800 0.627200 0.521100
vn 0.416800 0.705200 0.573600
vn 0.457800 0.627200 0.630100
vn 0.288400 0.705200 0.647700
vn 0.316800 0.627200 0.711500
vn 0.147400 0.705200 0.693600
vn 0.161900 0.627200 0.761800
vn 0.000000 0.705200 0.709000
vn 0.000000 0.627200 0.778800
vn -0.147400 0.705200 0.693600
vn -0.161900 0.627200 0.761800
vn -0.288400 0.705200 0.647700
vn -0.316800 0.627200 0.711500
vn -0.416800 0.705200 0.573600
vn -0.457800 0.627200 0.630100
vn -0.526900 0.705200 0.474400
vn -0.578800 0.627200 0.521100
vn -0.614100 0.705200 0.354500
vn -0.674500 0.627200 0.389400
vn -0.674300 0.705200 0.219100
vn -0.740700 0.627200 0.240700
vn -0.705200 0.705200 0.074100
vn -0.774600 0.627200 0.081400
vn -0.705200 0.705200 -0.074100
vn -0.774600 0.627200 -0.081400
vn 0.674000 -0.705500 0.219000
vn 0.741000 -0.626900 0.240800
vn 0.613800 -0.705500 0.354400
vn 0.674700 -0.626900 0.389500
vn 0.526700 -0.705500 0.474200
vn 0.579000 -0.626900 0.521300
vn 0.416600 -0.705500 0.573400
vn 0.457900 -0.626900 0.630300
vn 0.316900 -0.626900 0.711700
vn 0.288300 -0.705500 0.647400
vn 0.147300 -0.705500 0.693200
vn 0.162000 -0.626900 0.762100
vn 0.000000 -0.705500 0.708700
vn 0.000000 -0.626900 0.779100
vn -0.147300 -0.705500 0.693200
vn -0.162000 -0.626900 0.762100
vn -0.288300 -0.705500 0.647400
vn -0.316900 -0.626900 0.711700
vn -0.416600 -0.705500 0.573400
vn -0.457900 -0.626900 0.630300
vn -0.526700 -0.705500 0.474200
vn -0.579000 -0.626900 0.521300
vn -0.614100 -0.705500 0.353800
vn -0.675100 -0.626900 0.388900
vn -0.774700 -0.626900 0.082100
vn -0.704700 -0.705500 0.074700
vn -0.704800 -0.705500 -0.074100
vn -0.774800 -0.626900 -0.081400
vn -0.674000 -0.705500 -0.219000
vn -0.741000 -0.626900 -0.240800
vn -0.613800 -0.705500 -0.354400
vn -0.674700 -0.626900 -0.389500
vn -0.526700 -0.705500 -0.474200
vn -0.579000 -0.626900 -0.521300
vn -0.416600 -0.705500 -0.573300
vn -0.457900 -0.626900 -0.630300
vn -0.288300 -0.705500 -0.647400
vn -0.316900 -0.626900 -0.711700
vn -0.147300 -0.705500 -0.693200
vn -0.162000 -0.626900 -0.762100
vn 0.000000 -0.705500 -0.708700
vn 0.000000 -0.626900 -0.779100
vn 0.147300 -0.705500 -0.693200
vn 0.162000 -0.626900 -0.762100
vn 0.288300 -0.705500 -0.647400
vn 0.316900 -0.626900 -0.711700
vn 0.416600 -0.705500 -0.573300
vn 0.457900 -0.626900 -0.630300
vn 0.526700 -0.705500 -0.474200
vn 0.579000 -0.626900 -0.521300
vn 0.613800 -0.705500 -0.354400
vn 0.674700 -0.626900 -0.389500
vn 0.674000 -0.705500 -0.219000
vn 0.741000 -0.626900 -0.240800
vn 0.704800 -0.705500 -0.074100
vn 0.774800 -0.626900 -0.081400
vn 0.704800 -0.705500 0.074100
vn 0.774800 -0.626900 0.081400
vn -0.600500 -0.775500 -0.195100
vn -0.546800 -0.775500 -0.315700
vn -0.469200 -0.775500 -0.422500
vn -0.371100 -0.775500 -0.510800
vn -0.256800 -0.775500 -0.576800
vn -0.131300 -0.775500 -0.617600
vn 0.000000 -0.775500 -0.631400
vn 0.131300 -0.775500 -0.617600
vn 0.256800 -0.775500 -0.576800
vn 0.371100 -0.775500 -0.510800
vn 0.469200 -0.775500 -0.422500
vn 0.454300 0.054300 0.889200
vn 0.461800 0.050600 0.885600
vn -0.612700 0.707100 0.353000
vn 0.545300 -0.777100 -0.314200
vn -0.155100 0.054300 -0.986400
vn -0.146900 0.050600 -0.987900
vn 0.625800 -0.777100 -0.066300
vn -0.703200 0.707100 0.074600
vn 0.627900 -0.775500 0.066000
vn 0.600500 -0.775500 0.195100
vn 0.546800 -0.775500 0.315700
vn 0.469200 -0.775500 0.422500
vn 0.371100 -0.775500 0.510800
vn 0.256800 -0.775500 0.576800
vn 0.131300 -0.775500 0.617600
vn 0.000000 -0.775500 0.631400
vn -0.131300 -0.775500 0.617600
vn -0.256800 -0.775500 0.576800
vn -0.371100 -0.775500 0.510800
vn -0.469200 -0.775500 0.422500
vn -0.546800 -0.775500 0.315700
vn 0.674300 0.705200 -0.219100
vn -0.600500 -0.775500 0.195100
vn -0.627900 -0.775500 0.066000
vn -0.627900 -0.775500 -0.066000
s off
f 2//1 1//1 4//1 5//1
f 3//2 2//2 5//2 6//2
f 5//3 4//3 7//3 8//3
f 6//4 5//4 8//4 9//4
f 8//5 7//5 10//5 11//5
f 9//6 8//6 11//6 12//6
f 11//7 10//7 13//7 14//7
f 12//8 11//8 14//8 15//8
f 15//9 14//9 17//9 18//9
f 14//10 13//10 16//10 17//10
f 17//11 16//11 19//11 20//11
f 18//12 17//12 20//12 21//12
f 20//13 19//13 22//13 23//13
f 21//14 20//14 23//14 24//14
f 23//15 22//15 25//15 26//15
f 24//16 23//16 26//16 27//16
f 26//17 25//17 28//17 29//17
f 27//18 26//18 29//18 30//18
f 29//19 28//19 31//19 32//19
f 30//20 29//20 32//20 33//20
f 32//21 31//21 34//21 35//21
f 33//22 32//22 35//22 36//22
f 35//23 34//23 37//23 38//23
f 36//24 35//24 38//24 39//24
f 42//25 41//25 44//25 45//25
f 41//26 40//26 43//26 44//26
f 44//27 43//27 46//27 47//27
f 45//28 44//28 47//28 48//28
f 47//29 46//29 49//29 50//29
f 48//30 47//30 50//30 51//30
f 50//31 49//31 52//31 53//31
f 51//32 50//32 53//32 54//32
f 53//33 52//33 55//33 56//33
f 54//34 53//34 56//34 57//34
f 56//35 55//35 58//35 59//35
f 57//36 56//36 59//36 60//36
f 59//37 58//37 61//37 62//37
f 60//38 59//38 62//38 63//38
f 62//39 61//39 64//39 65//39
f 63//40 62//40 65//40 66//40
f 65//41 64//41 67//41 68//41
f 66//42 65//42 68//42 69//42
f 68//43 67//43 70//43 71//43
f 69//44 68//44 71//44 72//44
f 71//45 70//45 73//45 74//45
f 72//46 71//46 74//46 75//46
f 74//47 73//47 76//47 77//47
f 75//48 74//48 77//48 78//48
f 77//49 76//49 79//49 80//49
f 78//50 77//50 80//50 81//50
f 80//51 79//51 82//51 83//51
f 81//52 80//52 83//52 84//52
f 83//53 82//53 85//53 86//53
f 84//54 83//54 86//54 87//54
f 86//55 85//55 88//55 89//55
f 87//56 86//56 89//56 90//56
f 89//57 88//57 1//57 2//57
f 90//58 89//58 2//58 3//58
f 95//59 94//59 91//59 92//59
f 96//60 95//60 92//60 93//60
f 98//61 97//61 94//61 95//61
f 99//62 98//62 95//62 96//62
f 101//63 100//63 97//63 98//63
f 102//64 101//64 98//64 99//64
f 104//65 103//65 100//65 101//65
f 105//66 104//66 101//66 102//66
f 108//67 107//67 104//67 105//67
f 107//68 106//68 103//68 104//68
f 110//69 109//69 106//69 107//69
f 111//70 110//70 107//70 108//70
f 113//71 112//71 109//71 110//71
f 114//72 113//72 110//72 111//72
f 116//73 115//73 112//73 113//73
f 117//74 116//74 113//74 114//74
f 119//75 118//75 115//75 116//75
f 120//76 119//76 116//76 117//76
f 122//77 121//77 118//77 119//77
f 123//78 122//78 119//78 120//78
f 125//79 124//79 121//79 122//79
f 126//80 125//80 122//80 123//80
f 128//81 127//81 124//81 125//81
f 129//82 128//82 125//82 126//82
f 135//83 134//83 131//83 132//83
f 134//84 133//84 130//84 131//84
f 137//85 136//85 133//85 134//85
f 138//86 137//86 134//86 135//86
f 140//87 139//87 136//87 137//87
f 141//88 140//88 137//88 138//88
f 143//89 142//89 139//89 140//89
f 144//90 143//90 140//90 141//90
f 146//91 145//91 142//91 143//91
f 147//92 146//92 143//92 144//92
f 149//93 148//93 145//93 146//93
f 150//94 149//94 146//94 147//94
f 152//95 151//95 148//95 149//95
f 153//96 152//96 149//96 150//96
f 155//97 154//97 151//97 152//97
f 156//98 155//98 152//98 153//98
f 158//99 157//99 154//99 155//99
f 159//100 158//100 155//100 156//100
f 161//101 160//101 157//101 158//101
f 162//102 161//102 158//102 159//102
f 164//103 163//103 160//103 161//103
f 165//104 164//104 161//104 162//104
f 167//105 166//105 163//105 164//105
f 168//106 167//106 164//106 165//106
f 170//107 169//107 166//107 167//107
f 171//108 170//108 167//108 168//108
f 173//109 172//109 169//109 170//109
f 174//110 173//110 170//110 171//110
f 176//111 175//111 172//111 173//111
f 177//112 176//112 173//112 174//112
f 179//113 178//113 175//113 176//113
f 180//114 179//114 176//114 177//114
f 92//115 91//115 178//115 179//115
f 93//116 92//116 179//116 180//116
f 4//29 1//29 91//29 94//29
f 3//117 6//117 96//117 93//117
f 7//31 4//31 94//31 97//31
f 6//118 9//118 99//118 96//118
f 9//119 12//119 102//119 99//119
f 10//33 7//33 97//33 100//33
f 13//35 10//35 100//35 103//35
f 12//120 15//120 105//120 102//120
f 15//121 18//121 108//121 105//121
f 16//37 13//37 103//37 106//37
f 19//39 16//39 106//39 109//39
f 18//122 21//122 111//122 108//122
f 22//41 19//41 109//41 112//41
f 21//123 24//123 114//123 111//123
f 25//43 22//43 112//43 115//43
f 24//124 27//124 117//124 114//124
f 28//45 25//45 115//45 118//45
f 27//125 30//125 120//125 117//125
f 31//47 28//47 118//47 121//47
f 30//126 33//126 123//126 120//126
f 34//49 31//49 121//49 124//49
f 33//127 36//127 126//127 123//127
f 38//128 37//128 127//128 128//128
f 39//129 38//129 128//129 129//129
f 37//130 34//130 124//130 127//130
f 36//131 39//131 129//131 126//131
f 40//132 41//132 131//132 130//132
f 41//133 42//133 132//133 131//133
f 42//134 45//134 135//134 132//134
f 43//135 40//135 130//135 133//135
f 46//57 43//57 133//57 136//57
f 45//136 48//136 138//136 135//136
f 49//1 46//1 136//1 139//1
f 48//137 51//137 141//137 138//137
f 52//3 49//3 139//3 142//3
f 51//138 54//138 144//138 141//138
f 55//5 52//5 142//5 145//5
f 54//139 57//139 147//139 144//139
f 58//7 55//7 145//7 148//7
f 57//140 60//140 150//140 147//140
f 61//10 58//10 148//10 151//10
f 60//141 63//141 153//141 150//141
f 64//11 61//11 151//11 154//11
f 63//142 66//142 156//142 153//142
f 67//13 64//13 154//13 157//13
f 66//143 69//143 159//143 156//143
f 69//144 72//144 162//144 159//144
f 70//15 67//15 157//15 160//15
f 73//17 70//17 160//17 163//17
f 72//145 75//145 165//145 162//145
f 76//19 73//19 163//19 166//19
f 75//146 78//146 168//146 165//146
f 79//21 76//21 166//21 169//21
f 78//147 81//147 171//147 168//147
f 82//23 79//23 169//23 172//23
f 81//148 84//148 174//148 171//148
f 85//149 82//149 172//149 175//149
f 84//150 87//150 177//150 174//150
f 88//26 85//26 175//26 178//26
f 87//151 90//151 180//151 177//151
f 1//27 88//27 178//27 91//27
f 90//152 3//152 93//152 180//152
