# Blender v2.76 (sub 0) OBJ File: 'texttest.blend'
# www.blender.org
o Text.004_Text.000
v 0.168094 0.075000 2.646854
v -0.056745 0.075000 2.646854
v -0.056745 0.075000 2.147924
v -0.187366 0.075000 2.147924
v -0.187366 0.075000 1.985183
v -0.178749 0.075000 1.981050
v -0.169670 0.075000 1.974715
v -0.160131 0.075000 1.966179
v -0.150131 0.075000 1.955443
v -0.139670 0.075000 1.942506
v -0.128747 0.075000 1.927368
v -0.117364 0.075000 1.910029
v -0.105520 0.075000 1.890489
v -0.093215 0.075000 1.868749
v -0.080449 0.075000 1.844808
v -0.067221 0.075000 1.818666
v -0.053533 0.074998 1.790323
v 0.168094 0.075000 1.796747
v 0.168094 -0.075000 2.646854
v -0.056745 -0.075000 2.646854
v -0.056745 -0.075000 2.147924
v -0.187366 -0.075000 2.147924
v -0.187366 -0.075000 1.985183
v -0.178749 -0.075000 1.981050
v -0.169670 -0.075000 1.974715
v -0.160131 -0.075000 1.966179
v -0.150131 -0.075000 1.955443
v -0.139670 -0.075000 1.942506
v -0.128747 -0.075000 1.927368
v -0.117364 -0.075000 1.910029
v -0.105520 -0.075000 1.890489
v -0.093215 -0.075000 1.868749
v -0.080449 -0.075000 1.844808
v -0.067221 -0.075000 1.818666
v -0.053533 -0.074998 1.790323
v 0.168094 -0.075000 1.796747
vn -0.000000 1.000000 -0.000100
vn 0.000000 1.000000 0.000000
vn -0.000000 -1.000000 -0.000100
vn 0.000000 -1.000000 0.000000
vn -0.731700 0.000000 -0.681600
vn -0.870300 0.000000 -0.492600
vn -0.835900 0.000000 -0.548800
vn -0.855200 0.000000 -0.518400
vn -0.892300 0.000000 -0.451500
vn 0.000000 0.000000 1.000000
vn -0.900500 0.000000 -0.434900
vn -1.000000 0.000000 0.000000
vn -0.810900 0.000000 -0.585100
vn -0.572200 0.000000 -0.820100
vn 0.029000 0.000000 -0.999600
vn -0.777600 0.000000 -0.628800
vn -0.432500 0.000000 -0.901600
vn -0.882400 0.000000 -0.470500
vn -0.666800 0.000000 -0.745200
vn 1.000000 0.000000 0.000000
vn -0.811000 0.000000 -0.585100
s off
f 16//1 18//1 17//1
f 16//2 1//2 18//2
f 15//2 1//2 16//2
f 14//2 1//2 15//2
f 13//2 1//2 14//2
f 12//2 1//2 13//2
f 11//2 1//2 12//2
f 10//2 1//2 11//2
f 9//2 3//2 10//2
f 3//2 1//2 10//2
f 8//2 3//2 9//2
f 7//2 3//2 8//2
f 6//2 3//2 7//2
f 5//2 3//2 6//2
f 4//2 3//2 5//2
f 2//2 1//2 3//2
f 35//3 36//3 34//3
f 36//4 19//4 34//4
f 34//4 19//4 33//4
f 33//4 19//4 32//4
f 32//4 19//4 31//4
f 31//4 19//4 30//4
f 30//4 19//4 29//4
f 29//4 19//4 28//4
f 28//4 21//4 27//4
f 28//4 19//4 21//4
f 27//4 21//4 26//4
f 26//4 21//4 25//4
f 25//4 21//4 24//4
f 24//4 21//4 23//4
f 23//4 21//4 22//4
f 21//4 19//4 20//4
f 9//5 27//5 26//5
f 14//6 32//6 31//6
f 12//7 30//7 29//7
f 13//8 31//8 30//8
f 16//9 34//9 33//9
f 4//10 22//10 21//10
f 17//11 35//11 34//11
f 5//12 23//12 22//12
f 11//13 29//13 28//13
f 7//14 25//14 24//14
f 18//15 36//15 35//15
f 3//12 21//12 20//12
f 10//16 28//16 27//16
f 6//17 24//17 23//17
f 15//18 33//18 32//18
f 2//10 20//10 19//10
f 8//19 26//19 25//19
f 1//20 19//20 36//20
f 8//5 9//5 26//5
f 13//6 14//6 31//6
f 11//7 12//7 29//7
f 12//8 13//8 30//8
f 15//9 16//9 33//9
f 3//10 4//10 21//10
f 16//11 17//11 34//11
f 4//12 5//12 22//12
f 10//21 11//21 28//21
f 6//14 7//14 24//14
f 17//15 18//15 35//15
f 2//12 3//12 20//12
f 9//16 10//16 27//16
f 5//17 6//17 23//17
f 14//18 15//18 32//18
f 1//10 2//10 19//10
f 7//19 8//19 25//19
f 18//20 1//20 36//20
