# Blender v2.76 (sub 0) OBJ File: 'texttest.blend'
# www.blender.org
o Text_Text.001
v 0.119603 0.055000 -0.003501
v -0.138273 0.055000 -0.003501
v -0.096266 0.055000 -0.711785
v 0.116103 0.055000 -0.724621
v 0.119603 -0.055000 -0.003501
v -0.138273 -0.055000 -0.003501
v -0.096266 -0.055000 -0.711785
v 0.116103 -0.055000 -0.724621
vn 0.000000 1.000000 -0.000000
vn 0.000000 -1.000000 0.000000
vn 1.000000 0.000000 -0.004900
vn 0.000000 0.000000 1.000000
vn -0.998200 0.000000 -0.059200
vn -0.060300 0.000000 -0.998200
s off
f 3//1 1//1 4//1
f 2//1 1//1 3//1
f 8//2 5//2 7//2
f 7//2 5//2 6//2
f 1//3 5//3 8//3
f 2//4 6//4 5//4
f 3//5 7//5 6//5
f 4//6 8//6 7//6
f 4//3 1//3 8//3
f 1//4 2//4 5//4
f 2//5 3//5 6//5
f 3//6 4//6 7//6
