# Blender v2.76 (sub 0) OBJ File: 'texttest.blend'
# www.blender.org
o Text.004_Text.000
v 0.276767 0.075000 2.385612
v 0.210385 0.075000 2.385612
v 0.210385 0.075000 2.646854
v -0.016595 0.074998 2.646854
v -0.016595 0.075000 2.380258
v -0.291756 0.075000 2.380258
v -0.304604 0.075000 2.204669
v -0.071199 0.075000 1.796747
v 0.190043 0.075000 1.796747
v 0.190043 0.075000 2.165055
v 0.276767 0.075000 2.165055
v -0.014454 0.075000 2.014091
v -0.076552 0.075000 2.165055
v -0.014454 0.075000 2.170408
v 0.276767 -0.075000 2.385612
v 0.210385 -0.075000 2.385612
v 0.210385 -0.075000 2.646854
v -0.016595 -0.074998 2.646854
v -0.016595 -0.075000 2.380258
v -0.291756 -0.075000 2.380258
v -0.304604 -0.075000 2.204669
v -0.071199 -0.075000 1.796747
v 0.190043 -0.075000 1.796747
v 0.190043 -0.075000 2.165055
v 0.276767 -0.075000 2.165055
v -0.014454 -0.075000 2.014091
v -0.076552 -0.075000 2.165055
v -0.014454 -0.075000 2.170408
vn 0.000000 1.000000 0.000000
vn 0.000000 -1.000000 0.000000
vn 0.085900 0.000000 -0.996300
vn 0.000000 0.000000 -1.000000
vn 1.000000 0.000000 0.000000
vn 0.924800 0.000000 0.380400
vn 0.000000 0.000000 1.000000
vn -1.000000 0.000000 0.000000
vn -0.997300 0.000000 0.073000
vn -0.868000 0.000000 -0.496600
s off
f 7//1 9//1 8//1
f 7//1 12//1 9//1
f 12//1 10//1 9//1
f 7//1 13//1 12//1
f 14//1 10//1 12//1
f 7//1 14//1 13//1
f 14//1 11//1 10//1
f 14//1 1//1 11//1
f 7//1 1//1 14//1
f 6//1 5//1 7//1
f 5//1 1//1 7//1
f 4//1 2//1 5//1
f 2//1 1//1 5//1
f 4//1 3//1 2//1
f 22//2 23//2 21//2
f 23//2 26//2 21//2
f 23//2 24//2 26//2
f 26//2 27//2 21//2
f 26//2 24//2 28//2
f 27//2 28//2 21//2
f 24//2 25//2 28//2
f 25//2 15//2 28//2
f 28//2 15//2 21//2
f 21//2 19//2 20//2
f 21//2 15//2 19//2
f 19//2 16//2 18//2
f 19//2 15//2 16//2
f 16//2 17//2 18//2
f 14//3 28//3 27//3
f 9//4 23//4 22//4
f 1//5 15//5 25//5
f 13//6 27//6 26//6
f 4//7 18//7 17//7
f 5//8 19//8 18//8
f 11//4 25//4 24//4
f 7//9 21//9 20//9
f 3//5 17//5 16//5
f 10//5 24//5 23//5
f 6//7 20//7 19//7
f 2//7 16//7 15//7
f 12//8 26//8 28//8
f 8//10 22//10 21//10
f 13//3 14//3 27//3
f 8//4 9//4 22//4
f 11//5 1//5 25//5
f 12//6 13//6 26//6
f 3//7 4//7 17//7
f 4//8 5//8 18//8
f 10//4 11//4 24//4
f 6//9 7//9 20//9
f 2//5 3//5 16//5
f 9//5 10//5 23//5
f 5//7 6//7 19//7
f 1//7 2//7 15//7
f 14//8 12//8 28//8
f 7//10 8//10 21//10
