# Blender v2.76 (sub 0) OBJ File: 'texttest.blend'
# www.blender.org
o Text_Text.001
v -0.234539 0.055000 -0.703617
v -0.029172 0.055000 -0.690782
v -0.050175 0.055000 -0.416569
v 0.037340 0.055000 -0.420070
v 0.050175 0.055000 -0.700117
v 0.221704 0.055000 -0.697783
v 0.247375 0.055000 -0.002334
v 0.032672 0.055000 -0.004667
v 0.042007 0.055000 -0.199533
v -0.267211 0.054998 -0.207701
v -0.234539 -0.055000 -0.703617
v -0.029172 -0.055000 -0.690782
v -0.050175 -0.055000 -0.416569
v 0.037340 -0.055000 -0.420070
v 0.050175 -0.055000 -0.700117
v 0.221704 -0.055000 -0.697783
v 0.247375 -0.055000 -0.002334
v 0.032672 -0.055000 -0.004667
v 0.042007 -0.055000 -0.199533
v -0.267211 -0.054998 -0.207701
vn -0.000000 1.000000 0.000000
vn -0.000000 -1.000000 0.000000
vn -0.998900 0.000000 -0.047800
vn -0.040000 0.000000 -0.999200
vn -0.999000 0.000000 -0.045800
vn -0.997800 0.000000 -0.065700
vn 0.999300 0.000000 -0.036900
vn 0.997100 0.000000 0.076400
vn -0.026400 0.000000 0.999700
vn 0.013600 0.000000 -0.999900
vn 0.062400 0.000000 -0.998100
vn -0.010900 0.000000 0.999900
s off
f 10//1 2//1 1//1
f 4//1 6//1 5//1
f 4//1 7//1 6//1
f 10//1 3//1 2//1
f 3//1 7//1 4//1
f 10//1 9//1 3//1
f 9//1 7//1 3//1
f 8//1 7//1 9//1
f 11//2 12//2 20//2
f 15//2 16//2 14//2
f 16//2 17//2 14//2
f 12//2 13//2 20//2
f 14//2 17//2 13//2
f 13//2 19//2 20//2
f 13//2 17//2 19//2
f 19//2 17//2 18//2
f 9//3 19//3 18//3
f 4//4 14//4 13//4
f 5//5 15//5 14//5
f 1//6 11//6 20//6
f 7//7 17//7 16//7
f 3//8 13//8 12//8
f 10//9 20//9 19//9
f 6//10 16//10 15//10
f 2//11 12//11 11//11
f 8//12 18//12 17//12
f 8//3 9//3 18//3
f 3//4 4//4 13//4
f 4//5 5//5 14//5
f 10//6 1//6 20//6
f 6//7 7//7 16//7
f 2//8 3//8 12//8
f 9//9 10//9 19//9
f 5//10 6//10 15//10
f 1//11 2//11 11//11
f 7//12 8//12 17//12
