# Blender v2.76 (sub 0) OBJ File: ''
# www.blender.org
o Cube.001
v 0.973911 -0.863487 -0.973710
v 0.973911 -0.863487 0.973710
v -0.973911 -0.863487 0.973710
v -0.973911 -0.863487 -0.973710
v 0.973911 0.136513 -0.973709
v 0.973910 0.136513 0.973710
v -0.973911 0.136513 0.973710
v -0.973911 0.136513 -0.973710
v 1.000000 -0.200000 -1.000000
v 1.000000 -0.200000 1.000000
v -1.000000 -0.200000 1.000000
v -1.000000 -0.200000 -1.000000
v 1.000000 0.200000 -0.999999
v 0.999999 0.200000 1.000001
v -1.000000 0.200000 1.000000
v -1.000000 0.200000 -1.000000
vt 0.678560 0.000000
vt 0.678560 0.336257
vt 0.339280 0.336257
vt 0.000000 0.336257
vt 0.000000 0.000000
vt 0.848199 0.336257
vt 0.848199 0.000000
vt 0.916055 0.000000
vt 0.000000 1.000000
vt 0.000000 0.663742
vt 0.067856 0.663743
vt 0.135712 1.000000
vt 0.067856 1.000000
vt 0.983911 0.000000
vt 0.983911 0.336257
vt 0.916056 0.336258
vt 0.339280 0.000000
vt 0.135712 0.663742
vt 0.330360 0.336258
vt 0.330360 0.663742
vt 0.660720 0.663742
vt 1.000000 0.336258
vt 1.000000 0.663675
vt 0.830360 0.663675
vt 0.660720 0.336258
vt 0.830360 0.336258
vt 0.830360 0.991092
vt 0.678560 0.327485
vt 1.000000 0.991092
vt 0.848199 0.327485
vn 0.000000 -1.000000 0.000000
vn 0.000000 1.000000 0.000000
vn 1.000000 0.000000 0.000000
vn -0.000000 0.000000 1.000000
vn -1.000000 -0.000000 -0.000000
vn 0.000000 0.000000 -1.000000
s off
f 10/1/1 11/2/1 12/3/1
f 16/3/2 15/4/2 14/5/2
f 13/6/3 14/7/3 10/8/3
f 14/9/4 15/10/4 11/11/4
f 11/12/5 15/13/5 16/11/5
f 9/14/6 12/15/6 16/16/6
f 9/17/1 10/1/1 12/3/1
f 13/17/2 16/3/2 14/5/2
f 9/16/3 13/6/3 10/8/3
f 10/13/4 14/9/4 11/11/4
f 12/18/5 11/12/5 16/11/5
f 13/8/6 9/14/6 16/16/6
f 2/19/1 3/20/1 4/10/1
f 8/21/2 7/20/2 6/19/2
f 5/22/3 6/23/3 2/24/3
f 6/21/4 7/25/4 3/26/4
f 7/27/5 8/24/5 4/23/5
f 1/28/6 4/1/6 8/7/6
f 1/4/1 2/19/1 4/10/1
f 5/25/2 8/21/2 6/19/2
f 1/26/3 5/22/3 2/24/3
f 2/24/4 6/21/4 3/26/4
f 3/29/5 7/27/5 4/23/5
f 5/30/6 1/28/6 8/7/6
